<svg width="18" height="18" viewBox="0 0 18 18" fill="none" xmlns="http://www.w3.org/2000/svg">
<path d="M3 13.5C2.7875 13.5 2.6095 13.428 2.466 13.284C2.322 13.1405 2.25 12.9625 2.25 12.75C2.25 12.5375 2.322 12.3595 2.466 12.216C2.6095 12.072 2.7875 12 3 12H15C15.2125 12 15.3905 12.072 15.534 12.216C15.678 12.3595 15.75 12.5375 15.75 12.75C15.75 12.9625 15.678 13.1405 15.534 13.284C15.3905 13.428 15.2125 13.5 15 13.5H3ZM3 9.75C2.7875 9.75 2.6095 9.678 2.466 9.534C2.322 9.3905 2.25 9.2125 2.25 9C2.25 8.7875 2.322 8.60925 2.466 8.46525C2.6095 8.32175 2.7875 8.25 3 8.25H15C15.2125 8.25 15.3905 8.32175 15.534 8.46525C15.678 8.60925 15.75 8.7875 15.75 9C15.75 9.2125 15.678 9.3905 15.534 9.534C15.3905 9.678 15.2125 9.75 15 9.75H3ZM3 6C2.7875 6 2.6095 5.92825 2.466 5.78475C2.322 5.64075 2.25 5.4625 2.25 5.25C2.25 5.0375 2.322 4.85925 2.466 4.71525C2.6095 4.57175 2.7875 4.5 3 4.5H15C15.2125 4.5 15.3905 4.57175 15.534 4.71525C15.678 4.85925 15.75 5.0375 15.75 5.25C15.75 5.4625 15.678 5.64075 15.534 5.78475C15.3905 5.92825 15.2125 6 15 6H3Z" fill="#9B9B9B"/>
</svg>
